<svg width="224" height="42" viewBox="0 0 224 42" fill="none" xmlns="http://www.w3.org/2000/svg">
<path d="M10.3172 17.68V41H25.2632V1.568H13.2852C11.4302 6.126 7.82624 9.041 0.777242 9.465V17.68H10.3172ZM86.9685 20.436C86.9685 13.175 83.5765 0.825999 59.3025 0.825999H56.9175C32.5905 0.825999 29.1985 13.175 29.1985 20.436V22.026C29.1985 29.181 32.5905 41.742 56.9175 41.742H59.3025C83.5765 41.742 86.9685 29.181 86.9685 22.026V20.436ZM71.3335 21.443C71.3335 25.524 68.6835 31.036 58.0835 31.036C47.4305 31.036 44.7805 25.471 44.7805 21.39V20.754C44.7805 16.673 47.2185 11.426 58.0835 11.426C68.6835 11.426 71.3335 16.673 71.3335 20.754V21.443ZM147.163 20.436C147.163 13.175 143.771 0.825999 119.497 0.825999H117.112C92.7848 0.825999 89.3928 13.175 89.3928 20.436V22.026C89.3928 29.181 92.7848 41.742 117.112 41.742H119.497C143.771 41.742 147.163 29.181 147.163 22.026V20.436ZM131.528 21.443C131.528 25.524 128.878 31.036 118.278 31.036C107.625 31.036 104.975 25.471 104.975 21.39V20.754C104.975 16.673 107.413 11.426 118.278 11.426C128.878 11.426 131.528 16.673 131.528 20.754V21.443ZM166.391 23.987C179.906 23.987 182.079 16.938 182.079 12.857V12.009C182.079 7.928 179.906 1.144 166.391 1.144H165.225C151.71 1.144 149.484 7.928 149.484 12.009V12.857C149.484 16.938 151.657 23.987 165.225 23.987H166.391ZM202.59 1.568L159.342 41H170.737L213.985 1.568H202.59ZM165.755 16.991C161.303 16.991 159.713 14.765 159.713 12.592V12.327C159.713 10.048 161.197 8.034 165.755 8.034C170.419 8.034 171.85 10.048 171.85 12.327V12.645C171.85 14.765 170.26 16.991 165.755 16.991ZM208.261 41.424C221.776 41.424 223.949 34.375 223.949 30.294V29.446C223.949 25.312 221.723 18.528 208.208 18.528H207.042C193.527 18.528 191.301 25.312 191.301 29.446V30.294C191.301 34.375 193.527 41.424 206.989 41.424H208.261ZM207.625 34.428C203.12 34.428 201.53 32.255 201.53 29.976V29.711C201.53 27.432 202.961 25.471 207.625 25.471C212.13 25.471 213.72 27.432 213.72 29.711V30.082C213.72 32.202 212.13 34.428 207.625 34.428Z" fill="#FFCC00"/>
</svg>
