<svg width="232" height="66" viewBox="0 0 232 66" fill="none" xmlns="http://www.w3.org/2000/svg">
<path d="M27.6503 17.98C27.6503 19.1032 27.4215 20.1328 26.9639 21.0688C26.3607 22.3584 25.3519 23.3672 23.9375 24.0952C22.1695 25.0104 19.8919 25.468 17.1047 25.468H15.5759C11.4575 25.468 8.49345 24.3968 6.68385 22.2544C5.97665 21.4016 5.46705 20.476 5.15505 19.4776C4.86385 18.4584 4.71825 17.4496 4.71825 16.4512V16.0144C4.71825 15.016 4.86385 14.0176 5.15505 13.0192C5.46705 12.0208 5.97665 11.116 6.68385 10.3048C8.53505 8.204 11.4887 7.1536 15.5447 7.1536H16.8863C19.7151 7.1536 22.0551 7.6008 23.9063 8.4952C25.3415 9.2024 26.3607 10.18 26.9639 11.428C27.4215 12.364 27.6503 13.352 27.6503 14.392V14.4232H20.2559C20.1935 13.9032 19.9439 13.4352 19.5071 13.0192C18.7791 12.3328 17.7391 11.9896 16.3871 11.9896H16.1063C14.6711 11.9896 13.6103 12.4368 12.9239 13.3312C12.3623 14.0384 12.0815 14.9848 12.0815 16.1704V16.2016C12.0815 17.3664 12.3727 18.344 12.9551 19.1344C13.6415 20.0912 14.7127 20.5696 16.1687 20.5696H16.4495C17.8847 20.5696 18.9247 20.1952 19.5695 19.4464C19.7983 19.176 19.9647 18.9056 20.0687 18.6352C20.1935 18.3648 20.2559 18.1464 20.2559 17.98H27.6503ZM36.4808 25V12.52H29.8664V7.6216H50.1776V12.52H43.5632V25H36.4808ZM53.3371 7.6216H60.3883V9.8056C60.9291 9.2232 61.6987 8.7032 62.6971 8.2456C64.0699 7.6008 65.6299 7.2784 67.3771 7.2784H67.6891C70.8091 7.2784 73.1595 8.1936 74.7403 10.024C75.3851 10.8144 75.8635 11.7296 76.1755 12.7696C76.4875 13.7888 76.6435 14.86 76.6435 15.9832V16.5136C76.6435 17.5536 76.4771 18.5936 76.1443 19.6336C75.8323 20.6528 75.3435 21.568 74.6779 22.3792C73.0971 24.3552 70.7051 25.3432 67.5019 25.3432H67.1587C65.4323 25.3432 63.9035 25.0208 62.5723 24.376C61.8027 24.0432 61.0851 23.5648 60.4195 22.9408V30.928H53.3371V7.6216ZM69.2803 16.2328C69.2803 15.172 68.9995 14.2776 68.4379 13.5496C67.6891 12.6344 66.5451 12.1768 65.0059 12.1768H64.7563C63.2379 12.1768 62.0939 12.6344 61.3243 13.5496C61.0123 13.924 60.7731 14.3504 60.6067 14.8288C60.4611 15.3072 60.3883 15.7752 60.3883 16.2328V16.3888C60.3883 16.8464 60.4611 17.3144 60.6067 17.7928C60.7731 18.2712 61.0123 18.6976 61.3243 19.072C62.0731 19.9664 63.2171 20.4136 64.7563 20.4136H65.0059C66.5451 20.4136 67.6891 19.9456 68.4379 19.0096C68.9995 18.2816 69.2803 17.3976 69.2803 16.3576V16.2328ZM93.8072 22.7224C93.1832 23.388 92.5072 23.9184 91.7792 24.3136C90.4896 25 88.9296 25.3432 87.0992 25.3432H86.5688C84.26 25.3432 82.492 24.8024 81.2648 23.7208C80.7032 23.2216 80.2768 22.6392 79.9856 21.9736C79.6944 21.2872 79.5488 20.5592 79.5488 19.7896V19.6648C79.5488 18.0216 80.1208 16.8048 81.2648 16.0144C82.4504 15.1616 84.5304 14.6104 87.5048 14.3608L92.3408 13.9864C92.8192 13.9448 93.152 13.8408 93.3392 13.6744C93.5264 13.508 93.62 13.2688 93.62 12.9568V12.9256C93.62 12.4264 93.4432 12.0728 93.0896 11.8648C92.5696 11.5528 91.6648 11.3968 90.3752 11.3968H90.2816C88.9712 11.3968 88.0768 11.6152 87.5984 12.052C87.2656 12.364 87.0992 12.728 87.0992 13.144H79.9856V13.1128C79.9856 12.1976 80.1728 11.3864 80.5472 10.6792C81.1088 9.6392 82.0136 8.8384 83.2616 8.2768C84.9256 7.5696 87.0992 7.216 89.7824 7.216H90.7808C94.7744 7.216 97.5408 7.892 99.08 9.244C99.6624 9.764 100.047 10.3464 100.234 10.9912C100.442 11.636 100.546 12.3536 100.546 13.144V18.6976C100.546 19.1552 100.619 19.4776 100.765 19.6648C100.91 19.8312 101.212 19.9144 101.67 19.9144H102.481V25H96.74C95.9704 25 95.3048 24.74 94.7432 24.22C94.3064 23.8456 93.9944 23.3464 93.8072 22.7224ZM89.252 21.256C90.708 21.256 91.8416 20.8712 92.6528 20.1016C92.9856 19.7896 93.2248 19.4464 93.3704 19.072C93.5368 18.6768 93.62 18.3024 93.62 17.9488V16.8568C92.892 17.044 91.7272 17.2728 90.1256 17.5432C88.732 17.772 87.8064 18.0216 87.3488 18.292C86.8496 18.5624 86.6 18.968 86.6 19.5088V19.5712C86.6 20.0912 86.8184 20.5072 87.2552 20.8192C87.692 21.1104 88.3576 21.256 89.252 21.256ZM119.627 25L115.446 20.008L111.327 25H103.465L110.735 16.2016L103.34 7.6216H111.702L115.695 12.4576L119.595 7.6216H127.302L120.344 16.1392L127.676 25H119.627ZM140.235 25.468C137.136 25.468 134.671 24.9272 132.841 23.8456C131.343 22.9928 130.251 21.8072 129.565 20.2888C129.086 19.228 128.847 18.0008 128.847 16.6072V16.1704C128.847 14.7976 129.086 13.56 129.565 12.4576C130.251 10.9184 131.333 9.7016 132.81 8.8072C134.64 7.7048 137.105 7.1536 140.204 7.1536H141.265C144.447 7.1536 146.964 7.7048 148.815 8.8072C150.292 9.6808 151.342 10.8976 151.966 12.4576C152.382 13.5808 152.59 14.808 152.59 16.1392V16.6384C152.59 17.9696 152.382 19.1864 151.966 20.2888C151.363 21.7864 150.302 22.972 148.784 23.8456C146.954 24.9272 144.437 25.468 141.234 25.468H140.235ZM140.859 20.5696C142.419 20.5696 143.584 20.06 144.354 19.0408C144.936 18.292 145.227 17.356 145.227 16.2328C145.227 15.1096 144.936 14.1736 144.354 13.4248C143.605 12.468 142.44 11.9896 140.859 11.9896H140.578C138.935 11.9896 137.76 12.468 137.053 13.4248C136.491 14.1528 136.21 15.0888 136.21 16.2328C136.21 17.3768 136.491 18.3232 137.053 19.072C137.76 20.0704 138.935 20.5696 140.578 20.5696H140.859ZM156.504 25V7.6216H171.823C173.84 7.6216 175.421 7.9856 176.565 8.7136C177.709 9.4208 178.281 10.4504 178.281 11.8024V11.9584C178.281 13.04 177.969 13.9032 177.345 14.548C176.742 15.1928 175.9 15.6088 174.818 15.796C175.92 15.9208 176.856 16.3368 177.626 17.044C178.437 17.7928 178.843 18.7808 178.843 20.008V20.1328C178.843 23.3776 176.711 25 172.447 25H156.504ZM168.859 14.4856C170.273 14.4856 170.98 13.9656 170.98 12.9256V12.832C170.98 11.8336 170.273 11.3344 168.859 11.3344H163.586V14.4856H168.859ZM169.108 21.2872C170.731 21.2872 171.542 20.7464 171.542 19.6648V19.4776C171.542 18.3752 170.731 17.824 169.108 17.824H163.586V21.2872H169.108ZM196.058 25L189.912 17.1688V25H182.829V7.6216H189.912V14.3608L195.528 7.6216H203.453L196.589 15.4216L204.233 25H196.058ZM219.277 22.7224C218.653 23.388 217.977 23.9184 217.249 24.3136C215.96 25 214.4 25.3432 212.569 25.3432H212.039C209.73 25.3432 207.962 24.8024 206.735 23.7208C206.173 23.2216 205.747 22.6392 205.456 21.9736C205.165 21.2872 205.019 20.5592 205.019 19.7896V19.6648C205.019 18.0216 205.591 16.8048 206.735 16.0144C207.921 15.1616 210.001 14.6104 212.975 14.3608L217.811 13.9864C218.289 13.9448 218.622 13.8408 218.809 13.6744C218.997 13.508 219.09 13.2688 219.09 12.9568V12.9256C219.09 12.4264 218.913 12.0728 218.56 11.8648C218.04 11.5528 217.135 11.3968 215.845 11.3968H215.752C214.441 11.3968 213.547 11.6152 213.069 12.052C212.736 12.364 212.569 12.728 212.569 13.144H205.456V13.1128C205.456 12.1976 205.643 11.3864 206.017 10.6792C206.579 9.6392 207.484 8.8384 208.732 8.2768C210.396 7.5696 212.569 7.216 215.253 7.216H216.251C220.245 7.216 223.011 7.892 224.55 9.244C225.133 9.764 225.517 10.3464 225.705 10.9912C225.913 11.636 226.017 12.3536 226.017 13.144V18.6976C226.017 19.1552 226.089 19.4776 226.235 19.6648C226.381 19.8312 226.682 19.9144 227.14 19.9144H227.951V25H222.21C221.441 25 220.775 24.74 220.213 24.22C219.777 23.8456 219.465 23.3464 219.277 22.7224ZM214.722 21.256C216.178 21.256 217.312 20.8712 218.123 20.1016C218.456 19.7896 218.695 19.4464 218.841 19.072C219.007 18.6768 219.09 18.3024 219.09 17.9488V16.8568C218.362 17.044 217.197 17.2728 215.596 17.5432C214.202 17.772 213.277 18.0216 212.819 18.292C212.32 18.5624 212.07 18.968 212.07 19.5088V19.5712C212.07 20.0912 212.289 20.5072 212.725 20.8192C213.162 21.1104 213.828 21.256 214.722 21.256Z" fill="white"/>
<path d="M4.24875 50V37.6346H19.3448V50H14.3054V41.12H9.28815V50H4.24875ZM38.7028 46.0484C38.6732 46.6404 38.503 47.188 38.1922 47.6912C37.763 48.4312 37.0304 49.0232 35.9944 49.4672C34.692 50.0296 33.0418 50.3108 31.0438 50.3108H30.1336C27.1736 50.3108 25.0276 49.6078 23.6956 48.2018C22.6596 47.1214 22.1416 45.7154 22.1416 43.9838V43.673C22.1416 41.9266 22.6448 40.5132 23.6512 39.4328C24.9388 38.0416 27.0034 37.346 29.845 37.346H30.8218C33.8854 37.346 36.0536 38.0712 37.3264 39.5216C37.8592 40.1432 38.2292 40.861 38.4364 41.675C38.6436 42.4742 38.7472 43.3622 38.7472 44.339V44.783H27.3142C27.4326 45.5082 27.7434 46.0706 28.2466 46.4702C28.7942 46.8994 29.6304 47.114 30.7552 47.114C31.732 47.114 32.4498 46.966 32.9086 46.67C33.101 46.5664 33.2342 46.448 33.3082 46.3148L33.4414 46.0484H38.7028ZM30.4 40.343C29.438 40.343 28.7276 40.5206 28.2688 40.8758C27.81 41.2162 27.514 41.712 27.3808 42.3632H33.3748C33.3748 41.786 33.1898 41.3346 32.8198 41.009C32.3018 40.565 31.4952 40.343 30.4 40.343ZM41.5383 37.6346H46.5555V39.1886C46.9403 38.7742 47.4879 38.4042 48.1983 38.0786C49.1751 37.6198 50.2851 37.3904 51.5283 37.3904H51.7503C53.9703 37.3904 55.6427 38.0416 56.7675 39.344C57.2263 39.9064 57.5667 40.5576 57.7887 41.2976C58.0107 42.0228 58.1217 42.785 58.1217 43.5842V43.9616C58.1217 44.7016 58.0033 45.4416 57.7665 46.1816C57.5445 46.9068 57.1967 47.558 56.7231 48.1352C55.5983 49.5412 53.8963 50.2442 51.6171 50.2442H51.3729C50.1445 50.2442 49.0567 50.0148 48.1095 49.556C47.5619 49.3192 47.0513 48.9788 46.5777 48.5348V54.218H41.5383V37.6346ZM52.8825 43.7618C52.8825 43.007 52.6827 42.3706 52.2831 41.8526C51.7503 41.2014 50.9363 40.8758 49.8411 40.8758H49.6635C48.5831 40.8758 47.7691 41.2014 47.2215 41.8526C46.9995 42.119 46.8293 42.4224 46.7109 42.7628C46.6073 43.1032 46.5555 43.4362 46.5555 43.7618V43.8728C46.5555 44.1984 46.6073 44.5314 46.7109 44.8718C46.8293 45.2122 46.9995 45.5156 47.2215 45.782C47.7543 46.4184 48.5683 46.7366 49.6635 46.7366H49.8411C50.9363 46.7366 51.7503 46.4036 52.2831 45.7376C52.6827 45.2196 52.8825 44.5906 52.8825 43.8506V43.7618ZM60.9411 50V37.6346H71.8413C73.2769 37.6346 74.4017 37.8936 75.2157 38.4116C76.0297 38.9148 76.4367 39.6474 76.4367 40.6094V40.7204C76.4367 41.49 76.2147 42.1042 75.7707 42.563C75.3415 43.0218 74.7421 43.3178 73.9725 43.451C74.7569 43.5398 75.4229 43.8358 75.9705 44.339C76.5477 44.8718 76.8363 45.5748 76.8363 46.448V46.5368C76.8363 48.8456 75.3193 50 72.2853 50H60.9411ZM69.7323 42.5186C70.7387 42.5186 71.2419 42.1486 71.2419 41.4086V41.342C71.2419 40.6316 70.7387 40.2764 69.7323 40.2764H65.9805V42.5186H69.7323ZM69.9099 47.3582C71.0643 47.3582 71.6415 46.9734 71.6415 46.2038V46.0706C71.6415 45.2862 71.0643 44.894 69.9099 44.894H65.9805V47.3582H69.9099ZM87.1099 50.333C84.9047 50.333 83.1509 49.9482 81.8485 49.1786C80.7829 48.5718 80.0059 47.7282 79.5175 46.6478C79.1771 45.893 79.0069 45.0198 79.0069 44.0282V43.7174C79.0069 42.7406 79.1771 41.86 79.5175 41.0756C80.0059 39.9804 80.7755 39.1146 81.8263 38.4782C83.1287 37.6938 84.8825 37.3016 87.0877 37.3016H87.8425C90.1069 37.3016 91.8977 37.6938 93.2149 38.4782C94.2657 39.0998 95.0131 39.9656 95.4571 41.0756C95.7531 41.8748 95.9011 42.748 95.9011 43.6952V44.0504C95.9011 44.9976 95.7531 45.8634 95.4571 46.6478C95.0279 47.7134 94.2731 48.557 93.1927 49.1786C91.8903 49.9482 90.0995 50.333 87.8203 50.333H87.1099ZM87.5539 46.8476C88.6639 46.8476 89.4927 46.485 90.0403 45.7598C90.4547 45.227 90.6619 44.561 90.6619 43.7618C90.6619 42.9626 90.4547 42.2966 90.0403 41.7638C89.5075 41.083 88.6787 40.7426 87.5539 40.7426H87.3541C86.1849 40.7426 85.3487 41.083 84.8455 41.7638C84.4459 42.2818 84.2461 42.9478 84.2461 43.7618C84.2461 44.5758 84.4459 45.2492 84.8455 45.782C85.3487 46.4924 86.1849 46.8476 87.3541 46.8476H87.5539ZM109.408 42.8294L103.836 50H98.6855V37.6346H103.725V44.8496L109.297 37.6346H114.447V50H109.408V42.8294ZM106.233 36.458C104.531 36.458 103.296 35.9844 102.526 35.0372C102.23 34.6672 102.015 34.275 101.882 33.8606C101.764 33.4314 101.705 33.0244 101.705 32.6396V32.5952H105.257C105.257 32.8764 105.331 33.128 105.479 33.35C105.701 33.6756 106.048 33.8384 106.522 33.8384H106.544C106.988 33.8384 107.321 33.6756 107.543 33.35C107.691 33.128 107.765 32.8764 107.765 32.5952H111.295V32.6396C111.295 33.0244 111.221 33.4314 111.073 33.8606C110.94 34.275 110.718 34.6672 110.407 35.0372C109.593 35.9844 108.387 36.458 106.788 36.458H106.233ZM140.136 45.005C140.136 45.8042 139.974 46.5368 139.648 47.2028C139.219 48.1204 138.501 48.8382 137.495 49.3562C136.237 50.0074 134.616 50.333 132.633 50.333H131.545C128.615 50.333 126.506 49.5708 125.218 48.0464C124.715 47.4396 124.352 46.781 124.13 46.0706C123.923 45.3454 123.819 44.6276 123.819 43.9172V43.6064C123.819 42.896 123.923 42.1856 124.13 41.4752C124.352 40.7648 124.715 40.121 125.218 39.5438C126.535 38.049 128.637 37.3016 131.523 37.3016H132.477C134.49 37.3016 136.155 37.6198 137.472 38.2562C138.494 38.7594 139.219 39.455 139.648 40.343C139.974 41.009 140.136 41.712 140.136 42.452V42.4742H134.875C134.831 42.1042 134.653 41.7712 134.342 41.4752C133.824 40.9868 133.084 40.7426 132.122 40.7426H131.922C130.901 40.7426 130.146 41.0608 129.658 41.6972C129.258 42.2004 129.059 42.8738 129.059 43.7174V43.7396C129.059 44.5684 129.266 45.264 129.68 45.8264C130.169 46.5072 130.931 46.8476 131.967 46.8476H132.167C133.188 46.8476 133.928 46.5812 134.387 46.0484C134.549 45.856 134.668 45.6636 134.742 45.4712C134.831 45.2788 134.875 45.1234 134.875 45.005H140.136ZM146.42 50V41.12H141.713V37.6346H156.165V41.12H151.459V50H146.42ZM167.893 48.3794C167.449 48.853 166.968 49.2304 166.45 49.5116C165.532 50 164.422 50.2442 163.12 50.2442H162.743C161.1 50.2442 159.842 49.8594 158.969 49.0898C158.569 48.7346 158.266 48.3202 158.058 47.8466C157.851 47.3582 157.748 46.8402 157.748 46.2926V46.2038C157.748 45.0346 158.155 44.1688 158.969 43.6064C159.812 42.9996 161.292 42.6074 163.409 42.4298L166.85 42.1634C167.19 42.1338 167.427 42.0598 167.56 41.9414C167.693 41.823 167.76 41.6528 167.76 41.4308V41.4086C167.76 41.0534 167.634 40.8018 167.382 40.6538C167.012 40.4318 166.369 40.3208 165.451 40.3208H165.384C164.452 40.3208 163.816 40.4762 163.475 40.787C163.238 41.009 163.12 41.268 163.12 41.564H158.058V41.5418C158.058 40.8906 158.192 40.3134 158.458 39.8102C158.858 39.0702 159.501 38.5004 160.389 38.1008C161.573 37.5976 163.12 37.346 165.029 37.346H165.74C168.581 37.346 170.55 37.827 171.645 38.789C172.059 39.159 172.333 39.5734 172.466 40.0322C172.614 40.491 172.688 41.0016 172.688 41.564V45.5156C172.688 45.8412 172.74 46.0706 172.844 46.2038C172.947 46.3222 173.162 46.3814 173.487 46.3814H174.065V50H169.98C169.432 50 168.959 49.815 168.559 49.445C168.248 49.1786 168.026 48.8234 167.893 48.3794ZM164.652 47.336C165.688 47.336 166.494 47.0622 167.072 46.5146C167.308 46.2926 167.479 46.0484 167.582 45.782C167.701 45.5008 167.76 45.2344 167.76 44.9828V44.2058C167.242 44.339 166.413 44.5018 165.273 44.6942C164.282 44.857 163.623 45.0346 163.298 45.227C162.942 45.4194 162.765 45.708 162.765 46.0928V46.1372C162.765 46.5072 162.92 46.8032 163.231 47.0252C163.542 47.2324 164.015 47.336 164.652 47.336ZM176.385 50V37.6346H187.286C188.721 37.6346 189.846 37.8936 190.66 38.4116C191.474 38.9148 191.881 39.6474 191.881 40.6094V40.7204C191.881 41.49 191.659 42.1042 191.215 42.563C190.786 43.0218 190.186 43.3178 189.417 43.451C190.201 43.5398 190.867 43.8358 191.415 44.339C191.992 44.8718 192.281 45.5748 192.281 46.448V46.5368C192.281 48.8456 190.764 50 187.73 50H176.385ZM185.177 42.5186C186.183 42.5186 186.686 42.1486 186.686 41.4086V41.342C186.686 40.6316 186.183 40.2764 185.177 40.2764H181.425V42.5186H185.177ZM185.354 47.3582C186.509 47.3582 187.086 46.9734 187.086 46.2038V46.0706C187.086 45.2862 186.509 44.894 185.354 44.894H181.425V47.3582H185.354ZM204.53 50L200.157 44.4278V50H195.117V37.6346H200.157V42.4298L204.153 37.6346H209.791L204.907 43.1846L210.346 50H204.53ZM222.706 42.8294L217.134 50H211.984V37.6346H217.023V44.8496L222.595 37.6346H227.746V50H222.706V42.8294Z" fill="white"/>
</svg>
