<svg width="224" height="42" fill="none" xmlns="http://www.w3.org/2000/svg"><path d="M10.317 17.68V41h14.946V1.568H13.285C11.43 6.126 7.826 9.041.777 9.465v8.215h9.54zm76.651 2.756c0-7.261-3.392-19.61-27.666-19.61h-2.385c-24.327 0-27.719 12.349-27.719 19.61v1.59c0 7.155 3.392 19.716 27.72 19.716h2.385c24.273 0 27.666-12.561 27.666-19.716v-1.59zm-15.635 1.007c0 4.081-2.65 9.593-13.25 9.593-10.652 0-13.302-5.565-13.302-9.646v-.636c0-4.081 2.438-9.328 13.303-9.328 10.6 0 13.25 5.247 13.25 9.328v.689zm75.83-1.007c0-7.261-3.392-19.61-27.666-19.61h-2.385c-24.327 0-27.72 12.349-27.72 19.61v1.59c0 7.155 3.393 19.716 27.72 19.716h2.385c24.274 0 27.666-12.561 27.666-19.716v-1.59zm-15.635 1.007c0 4.081-2.65 9.593-13.25 9.593-10.653 0-13.303-5.565-13.303-9.646v-.636c0-4.081 2.438-9.328 13.303-9.328 10.6 0 13.25 5.247 13.25 9.328v.689zm34.863 2.544c13.515 0 15.688-7.049 15.688-11.13v-.848c0-4.081-2.173-10.865-15.688-10.865h-1.166c-13.515 0-15.741 6.784-15.741 10.865v.848c0 4.081 2.173 11.13 15.741 11.13h1.166zM202.59 1.568L159.342 41h11.395l43.248-39.432H202.59zm-36.835 15.423c-4.452 0-6.042-2.226-6.042-4.399v-.265c0-2.279 1.484-4.293 6.042-4.293 4.664 0 6.095 2.014 6.095 4.293v.318c0 2.12-1.59 4.346-6.095 4.346zm42.506 24.433c13.515 0 15.688-7.049 15.688-11.13v-.848c0-4.134-2.226-10.918-15.741-10.918h-1.166c-13.515 0-15.741 6.784-15.741 10.918v.848c0 4.081 2.226 11.13 15.688 11.13h1.272zm-.636-6.996c-4.505 0-6.095-2.173-6.095-4.452v-.265c0-2.279 1.431-4.24 6.095-4.24 4.505 0 6.095 1.961 6.095 4.24v.371c0 2.12-1.59 4.346-6.095 4.346z" fill="#FC0"/></svg>