<svg width="150" height="44" fill="none" xmlns="http://www.w3.org/2000/svg"><path d="M5.342 42.453H5.32c-2 .091-3.674-1.547-3.773-3.597V5.24a3.702 3.702 0 013.69-3.69H144.56c2.045 0 3.795 1.678 3.795 3.69v33.51a3.887 3.887 0 01-3.9 3.702H5.342z" fill="#000" stroke="#fff"/><path d="M33.416 21.793c0-3.562 2.934-5.238 3.038-5.343-1.152-1.78-3.142-2.828-5.237-2.828-2.095-.21-4.295 1.257-5.343 1.257-1.152 0-2.828-1.257-4.714-1.257-2.41 0-4.609 1.361-5.761 3.561-2.514 4.295-.629 10.685 1.78 14.142 1.153 1.676 2.62 3.562 4.4 3.562 1.781-.105 2.514-1.153 4.61-1.153 2.2 0 2.828 1.153 4.609 1.048 1.885 0 3.142-1.676 4.295-3.457 1.361-1.99 1.99-3.876 1.99-3.98 0 0-3.667-1.362-3.667-5.552zm-3.561-10.476a6.334 6.334 0 001.466-4.504c-1.362.104-3.142.942-4.19 2.095-.943 1.047-1.676 2.723-1.466 4.295 1.57.21 3.142-.734 4.19-1.886zM59.395 34.677h-2.514l-1.361-4.295H50.7l-1.361 4.295h-2.41l4.82-14.666h2.932l4.714 14.666zm-4.295-6.18l-1.257-3.772-.733-2.723-.733 2.723-1.257 3.771h3.98zm16.552.733c.104 1.571-.42 3.142-1.467 4.295-.838.942-1.99 1.361-3.247 1.361-1.362 0-2.41-.523-3.038-1.466v5.552h-2.41V27.554l-.104-3.457h2.095l.105 1.676a3.79 3.79 0 013.561-1.886c1.257 0 2.305.524 3.143 1.467.943 1.047 1.466 2.41 1.362 3.876zm-2.41.104c0-1.047-.21-1.885-.733-2.514-.524-.733-1.152-1.047-2.095-1.047-.629 0-1.152.21-1.571.524-.524.419-.734.838-.943 1.466l-.105.733v1.781c0 .733.21 1.362.733 1.99.524.524 1.048.839 1.886.839.838 0 1.571-.315 2.095-1.048.524-.838.733-1.78.733-2.724zm14.561-.104c.105 1.571-.419 3.142-1.467 4.295-.838.942-1.99 1.361-3.247 1.361-1.362 0-2.41-.523-3.038-1.466v5.552h-2.41V27.554l-.104-3.457h2.095l.21 1.676a3.79 3.79 0 013.561-1.886c1.257 0 2.305.524 3.143 1.467.838.943 1.257 2.304 1.257 3.876zm-2.41.104c0-1.047-.209-1.885-.733-2.514-.523-.733-1.152-1.047-2.095-1.047-.628 0-1.152.21-1.571.524-.524.419-.733.838-.943 1.466l-.105.733v1.781c0 .733.21 1.362.734 1.99.523.524 1.047.839 1.885.839.838 0 1.572-.315 2.095-1.048.524-.733.734-1.571.734-2.724zm16.133 1.153c0 1.257-.42 2.304-1.257 3.038-.943.838-2.305 1.257-3.98 1.257-1.572 0-2.83-.315-3.772-.943l.524-1.99c1.047.628 2.2.942 3.457.942.838 0 1.57-.21 2.095-.628.523-.42.733-.943.733-1.571 0-.629-.21-1.048-.629-1.467-.419-.42-1.047-.733-1.99-1.152-2.619-.943-3.876-2.305-3.876-4.19 0-1.153.42-2.2 1.362-2.934.943-.733 2.095-1.152 3.562-1.152 1.361 0 2.409.21 3.352.733l-.629 1.886c-.838-.42-1.885-.629-2.828-.629-.838 0-1.467.21-1.99.629-.42.314-.629.838-.629 1.362 0 .628.21 1.047.628 1.466l2.096 1.153c1.047.419 1.99.942 2.828 1.78.629.629.943 1.467.943 2.41zm7.752-4.61h-2.619v5.134c0 1.257.419 1.99 1.361 1.99l1.048-.105.105 1.78c-.419.21-1.048.21-1.886.21-.943 0-1.676-.314-2.2-.838-.523-.523-.838-1.466-.838-2.828v-5.342h-1.361v-1.781h1.571V22.21l2.304-.733v2.619h2.619v1.78h-.104zm11.732 3.353c0 1.571-.419 2.933-1.362 3.98-.943 1.048-2.304 1.572-3.876 1.572-1.571 0-2.828-.524-3.771-1.572-.943-1.047-1.362-2.304-1.362-3.876 0-1.676.524-2.933 1.467-3.98.943-1.048 2.2-1.572 3.876-1.572 1.571 0 2.828.524 3.771 1.572.838 1.047 1.257 2.304 1.257 3.876zm-2.409.104c0-.942-.21-1.78-.629-2.514-.524-.838-1.152-1.257-2.095-1.257-.943 0-1.676.42-2.2 1.257-.419.734-.628 1.572-.628 2.514 0 .943.209 1.781.628 2.515.524.838 1.257 1.257 2.095 1.257.943 0 1.572-.42 2.095-1.257.524-.629.734-1.572.734-2.515zm10.161-3.142l-.734-.105c-.733 0-1.466.314-1.885.943-.419.524-.629 1.257-.629 2.095v5.552h-2.409v-7.228L119 24.097h2.095l.105 1.99h.105a3.717 3.717 0 011.152-1.676c.524-.419 1.048-.524 1.676-.524h.629v2.305zm10.58 2.723l-.105 1.048h-7.123c0 .943.314 1.78 1.047 2.41.629.523 1.362.733 2.305.733 1.047 0 1.99-.21 2.828-.524l.419 1.676a10.196 10.196 0 01-3.561.628c-1.467.105-2.829-.419-3.876-1.466-.943-1.048-1.467-2.41-1.362-3.876 0-1.571.419-2.933 1.362-3.98.838-1.153 2.2-1.677 3.666-1.677 1.571 0 2.724.524 3.457 1.676.629.838.943 1.99.943 3.352zm-2.305-.628c0-.629-.104-1.257-.419-1.78-.419-.63-1.152-.944-1.885-.944-.734 0-1.362.315-1.886.943-.419.524-.628 1.152-.733 1.78h4.923zM54.367 11.003c0 1.257-.419 2.304-1.152 2.933-.733.628-1.781.943-3.143.943l-1.676-.105V7.65l1.99-.104c1.258 0 2.2.314 2.829.838.838.628 1.152 1.466 1.152 2.619zm-1.257 0c0-.838-.21-1.467-.628-1.886-.42-.419-1.153-.629-1.99-.629l-.944.105v5.343h.838c.838 0 1.572-.21 2.096-.734.419-.523.628-1.257.628-2.2zm7.752 1.152c0 .838-.21 1.466-.733 1.99-.524.524-1.153.838-1.886.838-.733 0-1.362-.21-1.78-.733-.525-.629-.734-1.257-.734-1.99 0-.838.21-1.467.733-1.99.42-.524 1.048-.734 1.886-.734.733 0 1.362.21 1.885.733.42.42.629 1.048.629 1.886zm-1.257 0c0-.524-.105-.838-.314-1.257a1.152 1.152 0 00-1.048-.629c-.419 0-.838.21-1.047.629l-.315 1.257c0 .524.105.838.315 1.257.209.419.628.628 1.047.628.419 0 .838-.21 1.048-.628.21-.314.314-.733.314-1.257zm9.951-2.514l-1.676 5.133h-1.047l-.629-2.2-.419-1.676-.419 1.676-.733 2.2h-1.047L62.014 9.64h1.152l.629 2.514.314 1.676.42-1.676.733-2.514h.942l.734 2.41.419 1.675.314-1.676.628-2.41h1.257zm5.971 5.133h-1.152V11.84c0-.943-.314-1.362-1.047-1.362-.315 0-.629.105-.838.419-.21.21-.315.524-.315.838v3.038h-1.152V9.64h1.047l.105.838.629-.629a1.77 1.77 0 011.047-.314c.524 0 .943.105 1.257.419.42.42.629.943.629 1.676v3.143h-.21zm3.248 0h-1.153V7.23h1.153v7.543zm6.809-2.62c0 .839-.21 1.467-.734 1.991-.523.524-1.152.838-1.885.838-.733 0-1.362-.21-1.78-.733-.42-.524-.734-1.152-.734-1.886 0-.838.21-1.466.733-1.99.42-.524 1.152-.733 1.886-.733.733 0 1.362.21 1.885.733.42.314.629.943.629 1.78zm-1.153 0c0-.523-.104-.837-.314-1.256a1.152 1.152 0 00-1.047-.629c-.42 0-.838.21-1.048.629-.21.314-.314.733-.314 1.257 0 .524.105.838.314 1.257.21.419.629.628 1.048.628.419 0 .838-.21 1.047-.628.21-.314.314-.733.314-1.257zm6.81 2.62h-1.048l-.105-.629c-.314.524-.838.734-1.571.734-.524 0-.943-.105-1.152-.42-.315-.314-.42-.628-.42-1.047 0-.629.315-1.152.839-1.467.628-.419 1.466-.523 2.2-.523v-.105c0-.733-.315-1.048-1.048-1.048-.524 0-.943.105-1.362.42l-.21-.734c.524-.314 1.153-.419 1.781-.419 1.362 0 2.096.733 2.096 2.095v3.143zm-1.258-1.781v-.838c-1.257 0-1.885.314-1.885 1.047l.21.629.628.21.733-.21.42-.629-.106-.21zm7.857 1.78h-1.048l-.104-.837c-.315.628-.838.943-1.676.943-.629 0-1.153-.21-1.572-.734-.419-.524-.628-1.152-.628-1.885 0-.838.21-1.467.628-1.99.42-.524.943-.734 1.572-.734.733 0 1.152.21 1.466.733V7.231h1.152v6.18l.21 1.363zm-1.257-2.2v-1.151l-.42-.734c-.209-.21-.418-.314-.732-.314-.42 0-.734.21-1.048.524-.21.314-.419.733-.419 1.362 0 .523.105.942.314 1.257.21.314.629.523 1.048.523.419 0 .733-.104.943-.419a1.77 1.77 0 00.314-1.047zm11.209-.418c0 .838-.21 1.466-.734 1.99s-1.152.838-1.885.838c-.734 0-1.362-.21-1.781-.733-.419-.524-.733-1.152-.733-1.886 0-.838.209-1.466.733-1.99.419-.628 1.047-.838 1.885-.838.734 0 1.362.21 1.886.733.314.42.629 1.048.629 1.886zm-1.258 0c0-.524-.104-.838-.314-1.257a1.15 1.15 0 00-1.047-.629c-.419 0-.838.21-1.048.629-.209.314-.314.733-.314 1.257 0 .524.105.838.314 1.257.21.419.629.628 1.048.628.419 0 .838-.21 1.047-.628.21-.314.314-.733.314-1.257zm7.438 2.619h-1.152V11.84c0-.943-.315-1.362-1.048-1.362-.314 0-.628.105-.838.419-.209.21-.314.524-.314.838v3.038h-1.152V9.64h1.047v.733l.629-.628c.314-.21.628-.315 1.047-.315.524 0 .943.105 1.257.42.419.418.629.942.629 1.675l-.105 3.248zm7.857-4.295h-1.258v2.514c0 .628.21.943.629.943l.524-.105v.838l-.943.105c-.419 0-.838-.105-1.048-.42a2.336 2.336 0 01-.419-1.361v-2.514h-.733V9.64h.733V8.593l1.153-.314v1.257h1.257l.105.943zm6.075 4.295h-1.152V11.84c0-.943-.314-1.362-1.048-1.362-.523 0-.942.314-1.152.838l-.105.419v3.143h-1.152V7.23h1.152v3.143c.315-.524.838-.838 1.572-.838.523 0 .838.105 1.152.419.419.42.629.943.629 1.78l.104 3.039zm6.39-2.829v.524h-3.457c0 .524.21.943.524 1.152.314.21.629.315 1.152.315l1.362-.21.21.838c-.524.21-1.048.315-1.781.315-.838 0-1.467-.21-1.886-.734-.419-.524-.733-1.152-.733-1.885 0-.734.21-1.467.629-1.99a2.236 2.236 0 011.78-.839c.734 0 1.362.315 1.676.838.315.524.524 1.048.524 1.676zm-1.152-.314l-.21-.838c-.209-.314-.523-.524-.942-.524-.419 0-.734.105-.943.42-.21.209-.314.523-.314.942h2.409z" fill="#fff"/></svg>