<svg width="151" height="45" fill="none" xmlns="http://www.w3.org/2000/svg"><path d="M6.125 43.322H6.107c-2.67.095-4.978-2.104-5.079-4.789V5.922c.1-2.786 2.304-4.894 5.097-4.894H144.98c2.793 0 4.996 2.108 5.097 4.894v32.506c-.1 2.774-2.398 4.894-5.202 4.894H6.125z" fill="#000" stroke="#fff"/><path d="M54.276 12.671c0 .845-.212 1.584-.74 2.112-.633.634-1.372.95-2.323.95-.95 0-1.69-.316-2.323-.95-.633-.633-.95-1.372-.95-2.323 0-.95.317-1.69.95-2.323.634-.633 1.373-.95 2.323-.95.423 0 .845.105 1.267.317.423.21.74.422.95.739l-.527.528c-.422-.528-.95-.74-1.69-.74-.633 0-1.267.212-1.69.74-.527.422-.738 1.056-.738 1.795 0 .739.21 1.372.739 1.795.528.422 1.056.74 1.69.74.739 0 1.267-.212 1.794-.74.317-.317.528-.74.528-1.267h-2.323v-.845h3.063v.422zm4.751-2.64h-2.85v2.007h2.64v.739h-2.64v2.006h2.85v.845h-3.59V9.292h3.696l-.106.74zm3.38 5.492h-.845V10.03h-1.795v-.739h4.329v.74H62.3v5.49h.105zm4.857 0v-6.23h.845v6.23h-.845zm4.33 0h-.846V10.03h-1.795v-.739h4.224v.74h-1.795l.211 5.49zm9.925-.845c-.634.633-1.373.95-2.323.95s-1.69-.317-2.323-.95c-.634-.634-.95-1.373-.95-2.323s.316-1.69.95-2.324c.633-.633 1.373-.95 2.323-.95s1.69.317 2.323.95c.633.634.95 1.373.95 2.324 0 .95-.316 1.795-.95 2.323zm-4.013-.423c.423.423 1.056.74 1.69.74.633 0 1.267-.212 1.69-.74.422-.422.739-1.056.739-1.795 0-.739-.212-1.373-.74-1.795-.422-.422-1.056-.739-1.69-.739-.633 0-1.266.211-1.689.74a2.548 2.548 0 00-.739 1.794c0 .74.211 1.373.74 1.795zm6.02 1.268v-6.23h.95l3.062 4.857V9.292h.845v6.23h-.845l-3.274-5.068v5.069h-.739z" fill="#fff"/><path d="M54.381 12.672c0 .422-.105.845-.211 1.161-.106.317-.317.74-.634.95a3.79 3.79 0 01-1.056.74c-.422.211-.844.211-1.267.211-.422 0-.95-.105-1.267-.211a3.793 3.793 0 01-1.056-.74 3.793 3.793 0 01-.739-1.055c-.211-.423-.211-.845-.211-1.267 0-.423.105-.95.211-1.267.106-.317.422-.74.74-1.056a3.794 3.794 0 011.055-.74c.423-.21.845-.21 1.267-.21.212 0 .423 0 .634.105.211 0 .422.105.633.211.212.106.423.211.529.317a.824.824 0 01.422.422v.106l-.634.633v-.105c-.21-.211-.422-.423-.633-.528a2.109 2.109 0 00-.95-.211c-.317 0-.634.105-.951.21-.211.106-.528.318-.633.529-.212.211-.423.422-.529.739-.105.317-.21.633-.21.95 0 .317 0 .74.21.95.106.317.317.529.529.74.21.211.527.422.739.528.21.105.528.211.844.211.317 0 .634-.106.95-.211.318-.106.529-.317.74-.528.105-.106.317-.317.317-.528.105-.211.105-.317.105-.528h-2.323v-1.056h3.274v.528h.105zm-.422 1.056c.105-.317.211-.74.211-1.162v-.317h-2.851v.634h2.323v.106c0 .21 0 .528-.106.739-.105.211-.21.422-.422.633-.317.317-.528.423-.845.634-.316.106-.633.211-.95.211-.317 0-.634-.105-.95-.211-.317-.106-.528-.317-.845-.528-.211-.211-.422-.422-.528-.74-.106-.316-.211-.633-.211-1.055 0-.423.105-.74.21-1.056.107-.317.318-.528.529-.74.211-.21.422-.422.739-.527.317-.106.634-.211.95-.211.423 0 .74.105.95.21.212.106.529.318.634.529l.423-.423-.317-.316c-.106-.106-.317-.212-.528-.317-.211-.106-.422-.211-.634-.211-.21-.106-.422-.106-.633-.106-.423 0-.845.106-1.267.211-.317.106-.74.423-.95.634-.317.317-.529.633-.634.95-.106.317-.212.74-.212 1.267 0 .423.106.845.212 1.267.105.317.422.74.633.95.317.318.634.529.95.634.317.106.74.212 1.268.212.422 0 .845-.106 1.267-.212.317-.105.74-.422.95-.633.317-.423.528-.634.634-1.056zm5.068-3.59h-2.745v1.795h2.64v.95h-2.64v1.795h2.85v1.056h-3.8V9.293h3.8l-.105.845zm-2.85-.212h2.745v-.528h-3.485v6.02h3.38v-.634h-2.852v-2.112h2.64v-.528h-2.64l.211-2.218zm6.23 5.703h-.951v-5.491h-1.795v-.95h4.54v.95h-1.795v5.49zm-.74-.212h.634v-5.49h1.795v-.529h-4.118v.528h1.795v5.491h-.106zm5.491.106V9.187h1.056v6.442l-1.056-.106zm.211-6.125v6.02h.634v-6.02h-.634zm4.224 6.23h-.95v-5.49h-1.795v-.95h4.435v.95h-1.796v5.49h.106zm-.74-.21h.529V9.925h1.795v-.528h-4.013v.528h1.796v5.491h-.106zm10.666-.634a3.792 3.792 0 01-1.056.739c-.422.211-.845.211-1.267.211-.422 0-.95-.105-1.267-.211a3.792 3.792 0 01-1.056-.74 3.793 3.793 0 01-.74-1.055c-.21-.423-.21-.845-.21-1.267 0-.423.105-.95.21-1.267.212-.423.423-.74.74-1.056a3.793 3.793 0 011.056-.74c.422-.21.844-.21 1.267-.21.422 0 .95.105 1.267.21.422.212.74.423 1.056.74.317.316.528.633.74 1.056.21.422.21.844.21 1.267 0 .422-.105.95-.21 1.267-.106.422-.423.739-.74 1.056zm-1.056.528c.317-.106.74-.423.95-.634.317-.317.528-.633.634-.95.106-.317.211-.74.211-1.267 0-.528-.105-.845-.211-1.267-.106-.317-.422-.74-.634-.95-.316-.318-.633-.529-.95-.634a3.938 3.938 0 00-1.267-.212c-.422 0-.845.106-1.267.212-.317.105-.74.422-.95.633-.317.317-.529.634-.634.95-.211.423-.317.74-.317 1.268 0 .422.106.844.211 1.267.106.317.423.739.634.95.317.317.633.528.95.634.317.105.74.21 1.267.21.528 0 .95 0 1.373-.21zm-2.851-1.162c.211.211.422.423.74.528.316.106.527.106.844.106.317 0 .633-.106.95-.211.211-.106.528-.317.634-.528.211-.212.422-.423.528-.74.105-.316.211-.633.211-.95 0-.317-.106-.74-.211-.95-.106-.317-.317-.528-.528-.74-.211-.21-.423-.422-.74-.527a1.989 1.989 0 00-.844-.212c-.317 0-.634.106-.95.212-.212.105-.528.316-.634.528a3.209 3.209 0 00-.528.739c-.106.317-.211.528-.211.95 0 .317.105.74.211.95.106.423.317.634.528.845zm.634.74a2.299 2.299 0 01-.845-.529 3.209 3.209 0 01-.528-.739c-.106-.317-.211-.633-.211-1.056 0-.317.105-.739.21-.95a2.3 2.3 0 01.529-.845c.211-.211.422-.422.739-.528.317-.105.633-.211.95-.211.317 0 .634.106.95.211a2.3 2.3 0 01.845.528c.212.211.423.423.528.74.106.316.212.633.212 1.055 0 .317-.106.74-.212.95a2.3 2.3 0 01-.528.845c-.21.212-.422.423-.739.528-.317.106-.633.212-.95.212-.317-.106-.634-.106-.95-.212zm5.174.633V9.187h1.056l2.85 4.646V9.187h1.057v6.442h-.95L84.37 10.77v4.857l-.95-.105zm.21-6.125v6.02h.529v-5.28l3.379 5.385h.633V9.398h-.528v5.175l-3.167-5.175h-.845zM75.711 24.71c-2.534 0-4.435 1.9-4.435 4.434 0 2.535 2.007 4.436 4.435 4.436 2.534 0 4.435-1.901 4.435-4.435.106-2.64-1.9-4.435-4.435-4.435zm0 7.074c-1.373 0-2.534-1.161-2.534-2.745s1.161-2.745 2.534-2.745c1.373 0 2.534 1.055 2.534 2.745 0 1.584-1.161 2.745-2.534 2.745zm-9.609-7.074c-2.534 0-4.435 1.9-4.435 4.434 0 2.535 2.006 4.436 4.435 4.436 2.534 0 4.435-1.901 4.435-4.435 0-2.64-2.006-4.435-4.435-4.435zm0 7.074c-1.373 0-2.534-1.161-2.534-2.745s1.161-2.745 2.534-2.745c1.373 0 2.534 1.055 2.534 2.745-.105 1.584-1.161 2.745-2.534 2.745zm-11.615-5.702v1.901h4.435c-.106 1.056-.528 1.9-1.056 2.429-.634.633-1.69 1.372-3.38 1.372-2.745-.105-4.857-2.323-4.857-5.068 0-2.746 2.218-4.963 4.858-4.963 1.478 0 2.64.634 3.484 1.373l1.373-1.373c-1.162-1.056-2.64-1.9-4.646-1.9-3.696 0-6.97 3.167-6.97 6.863 0 3.696 3.169 6.864 6.97 6.864 2.112 0 3.484-.634 4.752-2.007 1.267-1.267 1.69-3.062 1.69-4.33 0-.422 0-.844-.107-1.16h-6.546zm47.306 1.479c-.422-1.056-1.478-2.851-3.801-2.851-2.324 0-4.119 1.795-4.119 4.434 0 2.535 1.901 4.436 4.33 4.436 2.006 0 3.273-1.268 3.59-2.007l-1.478-1.056c-.528.74-1.162 1.267-2.218 1.267s-1.69-.422-2.217-1.372l5.913-2.535v-.316zm-6.019 1.478c0-1.69 1.373-2.64 2.323-2.64.74 0 1.479.422 1.69.95l-4.013 1.69zm-4.963 4.224h2.006V20.275h-2.006v12.988zM87.75 25.66c-.528-.528-1.373-1.056-2.429-1.056-2.217 0-4.223 2.006-4.223 4.435s2.006 4.33 4.223 4.33c1.056 0 1.9-.529 2.323-1.057h.106v.634c0 1.69-.95 2.64-2.429 2.64-1.161 0-2.006-.845-2.217-1.584l-1.584.845c.528 1.161 1.795 2.64 3.907 2.64 2.323 0 4.118-1.373 4.118-4.541v-7.92h-1.9v.634h.105zm-2.323 6.124c-1.373 0-2.534-1.161-2.534-2.745s1.161-2.745 2.534-2.745c1.373 0 2.428 1.161 2.428 2.745s-1.055 2.745-2.428 2.745zm25.448-11.51h-4.646v12.989h2.006v-4.858h2.746c2.217 0 4.223-1.584 4.223-4.012 0-2.429-2.217-4.118-4.329-4.118zm.106 6.23h-2.851V22.07h2.851c1.478 0 2.323 1.267 2.323 2.217-.211 1.056-1.056 2.218-2.323 2.218zm11.932-1.9c-1.478 0-2.957.634-3.485 2.006l1.795.74c.423-.74 1.056-.95 1.795-.95 1.056 0 2.007.633 2.112 1.689v.105c-.316-.211-1.161-.528-2.006-.528-1.901 0-3.696 1.056-3.696 2.957 0 1.795 1.584 2.957 3.274 2.957 1.372 0 2.006-.634 2.534-1.268h.106v1.056h1.9v-4.963c-.422-2.428-2.217-3.801-4.329-3.801zm-.211 7.18c-.634 0-1.584-.316-1.584-1.161 0-1.056 1.161-1.373 2.112-1.373.844 0 1.267.211 1.795.422-.211 1.268-1.267 2.112-2.323 2.112zm10.876-6.863l-2.218 5.596h-.105l-2.323-5.596h-2.112l3.379 7.92-2.006 4.329h2.006l5.28-12.25h-1.901zm-17.423 8.342h2.006V20.275h-2.006v12.988zM15.734 9.82c-.317.318-.423.845-.423 1.48v23.019c0 .633.211 1.161.528 1.478l.106.106L28.827 23.02v-.211L15.734 9.82zM33.685 27.35l-4.224-4.225v-.316l4.224-4.224.105.105 5.069 2.957c1.478.845 1.478 2.218 0 3.062l-5.174 2.64zM33.473 27.56l-4.434-4.329L16.05 36.22c.528.528 1.267.528 2.218.106l15.205-8.765zM33.473 18.268L18.268 9.61c-.95-.528-1.69-.423-2.218.105l12.988 12.883 4.435-4.33z" fill="#fff"/><path d="M33.051 27.138l-15.1 8.448c-.845.528-1.584.422-2.112 0l-.105.105.105.106c.528.422 1.267.528 2.112 0l15.1-8.659zM15.734 35.586c-.317-.317-.423-.845-.423-1.479v.106c0 .633.211 1.161.423 1.373zM38.225 24.18l-5.174 2.957.106.106 5.068-3.063c.74-.316 1.056-.844 1.056-1.372 0 .528-.422.95-1.056 1.372z" fill="#FEFEFE" fill-opacity=".2"/></svg>