<svg width="66" height="22" fill="none" xmlns="http://www.w3.org/2000/svg"><g clip-path="url(#clip0)"><path d="M43.682 7.389l-3.51 14.23h5.682l3.652-14.826-5.824.596zM62.443 6.77c-1.694-.168-4.344.357-5.657 1.358a6.922 6.922 0 00-.239-1.406l-5.036.62c.191 1.406 0 2.955-.501 5.052l-2.268 9.225h5.681l2.316-9.44c.572-.81 1.48-1.358 2.243-1.358.955 0 1.17.691.883 1.836l-2.196 8.962h5.681l2.435-9.749c.645-2.622-.215-4.815-3.342-5.1z" fill="#fff"/><path d="M50.437 2.765C50.437 1.239 49.1 0 47.406 0c-1.72 0-3.175 1.24-3.175 2.765 0 1.525 1.408 2.765 3.079 2.765 1.742.024 3.127-1.24 3.127-2.765z" fill="#FC0"/><path d="M36.807 6.936l-1.79 4.147a78.67 78.67 0 00-1.766 4.482l-.072-8.629h-5.132l-4.273 8.7.454-8.89-5.657.714 1.145 14.182h5.013s3.795-7.65 4.13-8.556l.047 8.533h5.132l8.474-14.683h-5.705zM12.46 6.579a6.713 6.713 0 00-3.246.762c.573-1.811.954-3.67 1.146-5.553.023-.43.047-.858.023-1.287l-5.967.738c.072.954-.072 2.455-.836 5.697L.716 18.806c-.143.572-.453 1.645-.716 2.05 2.34.81 4.798 1.192 7.256 1.144 1.862 0 3.342-.334 4.846-1.216 2.578-1.525 4.177-4.242 4.846-6.864 1.217-4.934-.788-7.341-4.488-7.341zm-1.504 7.603c-.644 2.717-1.504 3.933-2.936 3.933a2.38 2.38 0 01-1.336-.334l1.575-6.507a2.479 2.479 0 011.67-.715c1.266 0 1.72.715 1.027 3.623z" fill="#fff"/><path d="M54.495 1.716a.701.701 0 00-.382-.095.761.761 0 00-.406.143 1.936 1.936 0 00-.525.548l-.692 3.242H51.2l.693-3.266c.072-.31.095-.572.095-.786a2.08 2.08 0 00-.071-.572L53.11.453c.048.095.072.214.096.357.024.143.024.31.024.453.215-.214.453-.405.668-.548.239-.143.477-.214.716-.214.096 0 .167 0 .215.023.048.024.143.048.215.096l-.55 1.096zM58.767 4.243c-.023.167-.047.357-.023.548.023.19.047.357.119.453l-1.122.453c-.048-.096-.12-.191-.143-.31a.956.956 0 01-.072-.358c-.19.167-.406.31-.644.43-.239.118-.502.19-.788.19-.382 0-.692-.095-.907-.262-.215-.19-.31-.43-.31-.74 0-.094 0-.19.023-.333.024-.119.048-.286.072-.453l.669-3.17 1.336-.238-.668 3.17c-.024.12-.048.262-.072.381-.024.12-.024.215-.024.286 0 .12.024.191.096.263a.292.292 0 00.215.095c.095 0 .19-.024.31-.072a2.18 2.18 0 00.31-.19 1.25 1.25 0 00.263-.239c.072-.095.143-.167.19-.238l.67-3.194 1.312-.262-.812 3.79z" fill="#FC0"/></g><defs><clipPath id="clip0"><path fill="#fff" d="M0 0h66v22H0z"/></clipPath></defs></svg>