<svg width="232" height="66" fill="none" xmlns="http://www.w3.org/2000/svg"><path d="M27.65 17.98c0 1.123-.228 2.153-.686 3.089-.603 1.29-1.612 2.298-3.026 3.026-1.768.915-4.046 1.373-6.833 1.373h-1.53c-4.117 0-7.082-1.071-8.891-3.214a8.12 8.12 0 01-1.529-2.776 10.977 10.977 0 01-.437-3.027v-.437c0-.998.146-1.996.437-2.995a7.498 7.498 0 011.529-2.714c1.851-2.101 4.805-3.151 8.86-3.151h1.342c2.83 0 5.17.447 7.02 1.341 1.436.707 2.455 1.685 3.058 2.933.458.936.686 1.924.686 2.964v.031h-7.394c-.063-.52-.312-.988-.749-1.404-.728-.686-1.768-1.03-3.12-1.03h-.28c-1.436 0-2.497.448-3.183 1.342-.562.707-.842 1.654-.842 2.84v.03c0 1.165.29 2.143.873 2.933.687.957 1.758 1.436 3.214 1.436h.28c1.436 0 2.476-.375 3.12-1.124.23-.27.396-.54.5-.81.125-.271.187-.49.187-.656h7.394zM36.48 25V12.52h-6.614V7.622h20.312v4.898h-6.615V25h-7.082zM53.338 7.622h7.051v2.184c.541-.583 1.31-1.103 2.31-1.56 1.372-.645 2.932-.968 4.68-.968h.311c3.12 0 5.47.916 7.051 2.746a7.868 7.868 0 011.436 2.746c.311 1.019.468 2.09.468 3.213v.53c0 1.04-.167 2.08-.5 3.12a7.956 7.956 0 01-1.466 2.746c-1.58 1.976-3.973 2.964-7.176 2.964h-.343c-1.727 0-3.256-.322-4.587-.967a7.491 7.491 0 01-2.153-1.435v7.987h-7.082V7.622zm15.943 8.61c0-1.06-.28-1.954-.842-2.682-.749-.916-1.893-1.373-3.432-1.373h-.25c-1.518 0-2.662.457-3.432 1.373-.312.374-.55.8-.717 1.279a4.808 4.808 0 00-.219 1.404v.156c0 .457.073.925.219 1.404.166.478.405.905.717 1.279.75.894 1.893 1.342 3.432 1.342h.25c1.54 0 2.683-.468 3.432-1.404.561-.728.842-1.612.842-2.652v-.125zm24.527 6.49a8.045 8.045 0 01-2.028 1.592c-1.29.686-2.85 1.03-4.68 1.03h-.53c-2.309 0-4.077-.542-5.304-1.623a4.998 4.998 0 01-1.28-1.747 5.534 5.534 0 01-.436-2.184v-.125c0-1.643.572-2.86 1.716-3.65 1.185-.853 3.265-1.405 6.24-1.654l4.836-.375c.478-.041.811-.145.998-.312.187-.166.281-.405.281-.717v-.031c0-.5-.177-.853-.53-1.061-.52-.312-1.425-.468-2.715-.468h-.093c-1.31 0-2.205.218-2.684.655-.332.312-.499.676-.499 1.092h-7.113v-.031c0-.915.187-1.727.561-2.434.562-1.04 1.467-1.84 2.715-2.402 1.664-.707 3.837-1.061 6.52-1.061h.999c3.993 0 6.76.676 8.299 2.028.582.52.967 1.102 1.154 1.747.208.645.312 1.363.312 2.153v5.554c0 .457.073.78.219.967.145.166.447.25.905.25h.811V25H96.74a2.84 2.84 0 01-1.997-.78c-.437-.374-.749-.874-.936-1.498zm-4.555-1.466c1.456 0 2.59-.385 3.4-1.154.334-.312.573-.656.718-1.03.167-.395.25-.77.25-1.123v-1.092c-.728.187-1.893.416-3.494.686-1.394.229-2.32.479-2.777.749-.5.27-.749.676-.749 1.217v.062c0 .52.218.936.655 1.248.437.291 1.103.437 1.997.437zM119.627 25l-4.181-4.992L111.327 25h-7.862l7.27-8.798-7.395-8.58h8.362l3.993 4.836 3.9-4.836h7.707l-6.958 8.517L127.676 25h-8.049zm20.608.468c-3.099 0-5.564-.54-7.394-1.622-1.498-.853-2.59-2.039-3.276-3.557-.479-1.061-.718-2.288-.718-3.682v-.437c0-1.372.239-2.61.718-3.712.686-1.54 1.768-2.756 3.245-3.65 1.83-1.103 4.295-1.654 7.394-1.654h1.061c3.182 0 5.699.55 7.55 1.653 1.477.874 2.527 2.09 3.151 3.65.416 1.124.624 2.351.624 3.682v.5c0 1.33-.208 2.547-.624 3.65-.603 1.497-1.664 2.683-3.182 3.557-1.83 1.081-4.347 1.622-7.55 1.622h-.999zm.624-4.898c1.56 0 2.725-.51 3.495-1.53.582-.748.873-1.684.873-2.807s-.291-2.06-.873-2.808c-.749-.957-1.914-1.435-3.495-1.435h-.281c-1.643 0-2.818.478-3.525 1.435-.562.728-.843 1.664-.843 2.808s.281 2.09.843 2.839c.707.998 1.882 1.498 3.525 1.498h.281zM156.504 25V7.622h15.319c2.017 0 3.598.364 4.742 1.092 1.144.707 1.716 1.736 1.716 3.088v.156c0 1.082-.312 1.945-.936 2.59-.603.645-1.445 1.06-2.527 1.248 1.102.125 2.038.54 2.808 1.248.811.749 1.217 1.737 1.217 2.964v.125c0 3.245-2.132 4.867-6.396 4.867h-15.943zm12.355-10.514c1.414 0 2.121-.52 2.121-1.56v-.094c0-.998-.707-1.498-2.121-1.498h-5.273v3.152h5.273zm.249 6.801c1.623 0 2.434-.54 2.434-1.622v-.187c0-1.103-.811-1.654-2.434-1.654h-5.522v3.463h5.522zM196.058 25l-6.146-7.831V25h-7.083V7.622h7.083v6.739l5.616-6.74h7.925l-6.864 7.8L204.233 25h-8.175zm23.219-2.278a8.045 8.045 0 01-2.028 1.592c-1.289.686-2.849 1.03-4.68 1.03h-.53c-2.309 0-4.077-.542-5.304-1.623a4.99 4.99 0 01-1.279-1.747 5.538 5.538 0 01-.437-2.184v-.125c0-1.643.572-2.86 1.716-3.65 1.186-.853 3.266-1.405 6.24-1.654l4.836-.375c.478-.041.811-.145.998-.312.188-.166.281-.405.281-.717v-.031c0-.5-.177-.853-.53-1.061-.52-.312-1.425-.468-2.715-.468h-.093c-1.311 0-2.205.218-2.683.655-.333.312-.5.676-.5 1.092h-7.113v-.031c0-.915.187-1.727.561-2.434.562-1.04 1.467-1.84 2.715-2.402 1.664-.707 3.837-1.061 6.521-1.061h.998c3.994 0 6.76.676 8.299 2.028.583.52.967 1.102 1.155 1.747.208.645.312 1.363.312 2.153v5.554c0 .457.072.78.218.967.146.166.447.25.905.25h.811V25h-5.741c-.769 0-1.435-.26-1.997-.78-.436-.374-.748-.874-.936-1.498zm-4.555-1.466c1.456 0 2.59-.385 3.401-1.154a2.81 2.81 0 00.718-1.03c.166-.395.249-.77.249-1.123v-1.092c-.728.187-1.893.416-3.494.686-1.394.229-2.319.479-2.777.749-.499.27-.749.676-.749 1.217v.062c0 .52.219.936.655 1.248.437.291 1.103.437 1.997.437zM4.249 50V37.635h15.096V50h-5.04v-8.88H9.288V50h-5.04zm34.454-3.952a3.4 3.4 0 01-.51 1.643c-.43.74-1.163 1.332-2.199 1.776-1.302.563-2.952.844-4.95.844h-.91c-2.96 0-5.106-.703-6.438-2.11-1.036-1.08-1.554-2.486-1.554-4.217v-.311c0-1.746.503-3.16 1.51-4.24 1.287-1.391 3.351-2.087 6.193-2.087h.977c3.063 0 5.232.725 6.504 2.176.533.621.903 1.339 1.11 2.153.208.8.311 1.687.311 2.664v.444H27.314c.119.725.43 1.288.933 1.687.547.43 1.383.644 2.508.644.977 0 1.695-.148 2.154-.444.192-.104.325-.222.4-.355l.132-.267h5.262zM30.4 40.343c-.962 0-1.672.178-2.131.533-.459.34-.755.836-.888 1.487h5.994c0-.577-.185-1.028-.555-1.354-.518-.444-1.325-.666-2.42-.666zm11.138-2.708h5.018v1.554c.384-.415.932-.785 1.642-1.11.977-.46 2.087-.689 3.33-.689h.222c2.22 0 3.893.652 5.017 1.954.46.562.8 1.214 1.022 1.954.222.725.333 1.487.333 2.286v.378c0 .74-.119 1.48-.355 2.22a5.66 5.66 0 01-1.044 1.953c-1.125 1.406-2.827 2.11-5.106 2.11h-.244c-1.228 0-2.316-.23-3.264-.689a5.33 5.33 0 01-1.531-1.021v5.683h-5.04V37.635zm11.345 6.127c0-.755-.2-1.391-.6-1.91-.533-.65-1.347-.976-2.442-.976h-.178c-1.08 0-1.894.325-2.441.977-.223.266-.393.57-.511.91-.104.34-.155.673-.155.999v.11c0 .326.051.66.155 1 .118.34.288.644.51.91.533.636 1.347.955 2.443.955h.177c1.095 0 1.91-.333 2.442-1 .4-.517.6-1.146.6-1.886v-.09zM60.94 50V37.635h10.9c1.436 0 2.56.259 3.375.777.814.503 1.22 1.235 1.22 2.197v.111c0 .77-.221 1.384-.665 1.843-.43.459-1.029.755-1.799.888.785.089 1.45.385 1.999.888.577.533.865 1.236.865 2.109v.089c0 2.309-1.517 3.463-4.55 3.463H60.94zm8.791-7.481c1.007 0 1.51-.37 1.51-1.11v-.067c0-.71-.503-1.066-1.51-1.066h-3.751v2.243h3.751zm.178 4.84c1.154 0 1.731-.386 1.731-1.155v-.133c0-.785-.577-1.177-1.731-1.177h-3.93v2.464h3.93zm17.2 2.974c-2.205 0-3.96-.385-5.261-1.154-1.066-.607-1.843-1.45-2.332-2.531-.34-.755-.51-1.628-.51-2.62v-.31c0-.977.17-1.858.51-2.642.489-1.096 1.258-1.961 2.31-2.598 1.302-.784 3.055-1.176 5.26-1.176h.755c2.265 0 4.056.392 5.373 1.176 1.05.622 1.798 1.488 2.242 2.598.296.799.444 1.672.444 2.62v.354c0 .948-.148 1.813-.444 2.598-.43 1.065-1.184 1.909-2.264 2.53-1.303.77-3.093 1.155-5.373 1.155h-.71zm.444-3.485c1.11 0 1.939-.363 2.486-1.088.415-.533.622-1.199.622-1.998 0-.8-.207-1.465-.622-1.998-.533-.681-1.361-1.021-2.486-1.021h-.2c-1.17 0-2.005.34-2.508 1.02-.4.519-.6 1.185-.6 1.999 0 .814.2 1.487.6 2.02.503.71 1.339 1.066 2.508 1.066h.2zm21.854-4.019L103.836 50h-5.15V37.635h5.039v7.215l5.572-7.215h5.15V50h-5.039v-7.17zm-3.175-6.371c-1.702 0-2.937-.474-3.707-1.42a3.68 3.68 0 01-.644-1.177 4.61 4.61 0 01-.177-1.221v-.045h3.552c0 .281.074.533.222.755.222.326.569.488 1.043.488h.022c.444 0 .777-.162.999-.488a1.33 1.33 0 00.222-.755h3.53v.045c0 .384-.074.791-.222 1.22a3.477 3.477 0 01-.666 1.177c-.814.947-2.02 1.421-3.619 1.421h-.555zm33.903 8.547c0 .8-.162 1.532-.488 2.198-.429.917-1.147 1.635-2.153 2.153-1.258.651-2.879.977-4.862.977h-1.088c-2.93 0-5.039-.762-6.327-2.287a5.781 5.781 0 01-1.088-1.975 7.819 7.819 0 01-.311-2.154v-.31c0-.711.104-1.421.311-2.132a5.338 5.338 0 011.088-1.931c1.317-1.495 3.419-2.242 6.305-2.242h.954c2.013 0 3.678.318 4.995.954 1.022.503 1.747 1.199 2.176 2.087.326.666.488 1.369.488 2.109v.022h-5.261c-.044-.37-.222-.703-.533-.999-.518-.488-1.258-.732-2.22-.732h-.2c-1.021 0-1.776.318-2.264.954-.4.503-.599 1.177-.599 2.02v.023c0 .828.207 1.524.621 2.086.489.681 1.251 1.022 2.287 1.022h.2c1.021 0 1.761-.267 2.22-.8a2.05 2.05 0 00.355-.577c.089-.192.133-.348.133-.466h5.261zM146.42 50v-8.88h-4.707v-3.485h14.452v3.485h-4.706V50h-5.039zm21.473-1.62a5.724 5.724 0 01-1.443 1.132c-.918.488-2.028.732-3.33.732h-.377c-1.643 0-2.901-.385-3.774-1.154-.4-.355-.703-.77-.911-1.243a3.94 3.94 0 01-.31-1.554v-.09c0-1.168.407-2.034 1.221-2.597.843-.606 2.323-.999 4.44-1.176l3.441-.267c.34-.03.577-.103.71-.222.133-.118.2-.288.2-.51v-.022c0-.356-.126-.607-.378-.755-.37-.222-1.013-.333-1.931-.333h-.067c-.932 0-1.568.155-1.909.466-.237.222-.355.481-.355.777h-5.062v-.022c0-.651.134-1.229.4-1.732.4-.74 1.043-1.31 1.931-1.71 1.184-.502 2.731-.754 4.64-.754h.711c2.841 0 4.81.481 5.905 1.443.414.37.688.784.821 1.243.148.459.222.97.222 1.532v3.952c0 .325.052.555.156.688.103.118.318.177.643.177h.578V50h-4.085a2.021 2.021 0 01-1.421-.555c-.311-.266-.533-.622-.666-1.066zm-3.241-1.044c1.036 0 1.842-.274 2.42-.821.236-.222.407-.467.51-.733.119-.281.178-.548.178-.8v-.776c-.518.133-1.347.296-2.487.488-.991.163-1.65.34-1.975.533-.356.192-.533.481-.533.866v.044c0 .37.155.666.466.888.311.207.784.311 1.421.311zM176.385 50V37.635h10.901c1.435 0 2.56.259 3.374.777.814.503 1.221 1.235 1.221 2.197v.111c0 .77-.222 1.384-.666 1.843-.429.459-1.029.755-1.798.888.784.089 1.45.385 1.998.888.577.533.866 1.236.866 2.109v.089c0 2.309-1.517 3.463-4.551 3.463h-11.345zm8.792-7.481c1.006 0 1.509-.37 1.509-1.11v-.067c0-.71-.503-1.066-1.509-1.066h-3.752v2.243h3.752zm.177 4.84c1.155 0 1.732-.386 1.732-1.155v-.133c0-.785-.577-1.177-1.732-1.177h-3.929v2.464h3.929zM204.53 50l-4.373-5.572V50h-5.04V37.635h5.04v4.795l3.996-4.795h5.638l-4.884 5.55L210.346 50h-5.816zm18.176-7.17L217.134 50h-5.15V37.635h5.039v7.215l5.572-7.215h5.151V50h-5.04v-7.17z" fill="#fff"/></svg>